P3
20 10
255
209 178 94
143 11 225
65 171 223
127 99 216
41 163 232
77 251 204
158 135 40
22 200 197
223 129 166
149 164 50
216 14 65
142 65 62
138 157 228
186 128 182
33 180 229
87 60 199
173 53 142
230 37 231
235 50 165
55 167 172
115 87 228
24 196 146
208 102 91
103 150 131
98 152 128
25 158 227
147 233 9
167 86 211
171 147 147
242 140 7
236 168 120
108 41 201
190 165 183
2 113 56
175 213 1
205 86 1
152 194 149
115 196 112
67 233 147
172 82 204
168 120 235
92 152 23
183 185 163
220 123 77
228 39 127
176 211 71
6 171 58
9 13 15
125 161 0
197 143 105
80 23 73
62 118 65
5 240 26
166 233 45
31 113 26
178 133 101
179 167 74
198 241 235
205 234 109
160 254 47
20 79 166
3 205 90
122 167 129
198 226 80
154 157 206
176 118 168
199 43 3
155 128 196
191 38 67
236 228 174
112 7 45
67 120 158
125 175 152
157 178 128
101 208 26
222 16 111
176 52 176
4 8 145
66 114 63
179 35 87
20 200 195
95 21 112
208 4 200
170 229 180
23 170 73
113 79 241
76 154 16
179 92 183
160 119 118
41 73 209
188 133 222
244 100 88
159 93 101
101 225 34
124 145 29
168 177 158
79 143 31
55 8 171
211 89 145
38 37 146
201 111 80
108 186 56
156 189 114
50 170 190
188 69 92
181 228 165
198 208 40
196 115 22
89 205 155
197 82 149
224 34 130
14 177 86
74 5 220
229 118 38
229 12 214
109 186 207
202 231 68
228 219 4
175 131 233
140 253 105
149 218 5
146 57 111
111 33 200
141 104 125
141 162 19
116 209 127
223 99 123
81 227 59
220 53 253
15 87 87
174 243 199
9 241 243
1 133 178
228 214 106
47 24 199
214 223 251
6 240 231
181 160 170
88 159 28
59 24 39
162 230 127
79 31 192
102 69 207
69 233 146
190 95 253
131 153 74
146 220 194
172 70 25
59 133 30
194 160 49
65 31 109
1 22 220
69 214 222
65 80 107
91 227 149
162 91 135
76 220 123
103 126 172
227 236 134
61 193 109
7 214 24
74 159 102
82 177 189
114 133 69
151 125 114
213 184 48
192 117 4
186 65 18
38 146 148
176 224 114
157 15 193
98 19 219
165 254 44
133 216 91
142 55 221
189 188 164
56 102 56
198 110 214
130 232 89
176 158 189
30 88 9
73 143 149
84 247 118
94 147 183
213 83 180
230 133 203
128 202 169
254 102 130
8 97 16
4 0 223
77 114 127
218 137 231
175 224 34
12 6 22
250 248 237
124 222 234
66 81 177
12 142 159
3 242 25
179 181 203
