P3
20 10
255
121 229 61
165 3 249
139 64 106
67 152 164
46 5 13
34 151 202
20 232 100
28 198 45
18 11 209
96 193 114
122 174 146
235 144 42
235 216 83
30 107 229
107 155 104
95 14 197
132 55 59
40 186 204
91 104 67
1 112 146
209 248 87
251 227 148
168 188 188
25 12 29
206 73 242
97 71 145
122 17 67
204 96 214
149 217 98
224 239 94
188 47 202
107 133 133
107 103 223
0 25 169
240 153 192
213 63 124
111 89 102
213 117 69
217 226 59
166 26 30
193 192 21
83 20 54
48 33 92
22 133 56
101 162 160
4 208 31
97 128 46
92 69 45
220 215 240
133 156 176
157 27 147
48 35 46
93 119 193
167 36 25
244 36 156
231 73 245
4 62 237
217 59 32
251 40 203
115 95 26
88 56 160
24 154 185
209 235 92
159 74 108
205 112 233
166 160 162
241 61 35
54 233 69
196 107 250
172 21 54
175 107 17
91 107 8
171 133 248
145 234 108
10 123 72
181 141 3
245 123 215
24 216 44
18 52 28
127 201 45
25 205 152
23 115 85
194 249 68
57 142 78
74 140 136
143 192 45
127 34 24
116 137 110
168 152 161
148 72 177
73 72 59
217 247 124
29 107 222
60 236 242
60 124 125
22 241 131
45 243 48
129 244 79
75 213 230
164 218 44
134 56 141
14 133 113
99 140 11
189 119 160
89 48 166
26 129 197
11 121 254
222 98 96
114 201 28
48 181 240
227 116 216
199 46 16
39 254 99
12 76 84
36 114 136
249 86 6
95 179 141
171 172 144
136 170 134
45 240 29
142 189 34
81 88 47
253 13 140
190 130 238
168 111 12
127 106 251
49 204 177
104 82 165
37 15 0
240 218 50
130 86 185
176 148 126
198 144 141
168 235 209
166 83 193
218 80 179
31 110 89
77 149 130
138 69 151
186 142 145
37 11 226
228 82 116
79 33 104
129 127 5
114 149 158
180 225 244
163 148 92
171 82 96
31 120 13
187 108 189
230 235 57
79 65 209
144 70 231
200 173 171
193 183 191
177 63 14
220 203 167
172 208 92
51 19 254
81 232 118
170 98 175
7 19 75
108 39 126
51 248 106
33 61 58
149 220 173
23 128 227
153 141 105
168 164 44
252 148 64
175 74 204
238 20 102
144 80 56
85 189 28
33 173 93
195 224 12
2 143 230
92 43 32
94 59 178
220 33 174
73 51 139
120 4 138
41 210 140
50 102 180
92 69 7
248 152 177
183 60 128
225 211 157
88 156 40
208 0 191
51 249 241
222 71 141
182 73 215
204 147 105
29 4 112
137 130 6
52 81 41
136 116 251
177 156 98
200 166 60
