P3
20 10
255
232 230 191
49 0 127
231 33 36
68 15 144
221 222 195
127 98 223
12 132 37
123 204 118
108 122 195
175 169 36
171 94 213
80 120 66
107 212 246
109 49 127
203 104 85
22 235 37
112 13 233
130 60 7
159 246 88
163 237 232
134 165 157
152 224 246
166 75 221
199 233 70
237 13 200
39 79 113
191 30 56
78 39 211
52 179 128
215 128 107
224 25 155
76 59 215
60 242 28
218 42 82
238 173 204
61 72 31
98 46 168
126 112 65
194 116 80
217 200 171
212 219 217
231 13 55
130 214 212
218 210 173
64 113 111
119 180 199
228 126 96
2 174 201
218 252 98
142 206 59
252 181 33
244 127 232
110 31 52
142 33 100
76 143 248
164 177 136
151 94 214
102 226 46
233 20 124
103 83 129
182 183 62
230 185 129
194 149 137
42 212 161
248 133 198
4 107 118
10 171 95
245 146 82
168 252 54
223 206 121
236 19 115
50 124 159
157 74 252
189 151 200
30 247 74
149 140 17
63 137 128
30 128 126
239 26 36
250 137 73
236 75 120
37 230 147
45 215 44
198 239 180
97 53 36
246 36 254
233 40 173
197 173 81
185 30 216
20 11 242
203 245 18
47 187 241
76 104 220
74 54 154
226 225 34
234 65 202
121 182 34
111 195 220
135 94 139
210 217 254
254 91 146
177 132 19
101 247 32
33 165 4
56 10 201
68 94 56
87 151 228
249 52 25
0 145 142
1 221 105
21 98 239
203 75 21
183 184 34
68 17 148
73 51 203
34 154 84
140 150 249
100 253 130
172 254 90
203 195 249
7 160 43
14 128 86
7 240 211
211 7 214
87 243 67
187 77 43
14 125 60
137 102 214
88 1 191
186 114 84
238 149 118
58 74 178
120 227 40
55 173 243
153 228 166
253 221 242
161 118 30
74 175 248
72 42 51
76 216 76
2 66 180
98 152 84
79 224 241
41 78 141
50 56 66
96 245 67
0 20 204
233 94 157
177 67 81
19 13 232
107 186 110
90 180 160
104 30 181
109 240 58
172 235 249
63 147 170
141 164 245
207 195 189
178 70 161
14 92 80
15 24 204
30 176 19
88 240 85
74 237 222
71 77 218
185 151 109
86 17 249
144 229 252
158 45 186
88 218 43
37 42 197
175 126 236
77 173 96
219 212 183
40 128 34
19 232 40
203 163 234
166 240 89
116 190 41
147 45 52
228 71 57
245 36 11
2 97 235
108 215 237
124 242 119
207 112 20
245 223 52
246 223 96
172 129 221
155 61 126
41 116 92
29 72 245
58 20 121
177 208 140
42 143 8
147 198 105
10 75 131
31 116 52
142 88 110
123 171 214
