P3
20 10
255
0 105 113
155 13 190
81 14 3
202 216 218
144 165 11
117 136 82
47 65 191
181 201 190
141 123 36
52 167 192
21 144 25
133 96 113
53 205 46
57 177 2
180 175 61
252 222 156
212 53 229
83 11 18
200 193 212
95 242 44
137 20 90
187 180 3
247 59 236
201 63 90
159 250 112
182 39 85
62 232 2
13 250 88
238 35 222
169 20 214
195 125 2
97 124 117
70 141 167
11 131 79
183 103 32
160 254 235
23 156 107
254 202 109
17 96 18
120 229 28
238 135 152
90 117 40
20 18 40
125 215 151
90 165 164
218 79 131
198 178 151
189 219 220
34 184 152
70 50 114
31 224 115
143 219 42
163 67 42
67 195 105
249 191 245
114 49 142
47 161 78
70 169 25
14 57 186
84 190 187
215 112 33
197 230 43
180 48 16
3 159 194
144 205 10
29 180 36
59 153 247
238 13 207
116 23 117
193 239 208
99 103 241
117 75 4
251 120 187
241 191 77
183 83 219
213 58 147
54 87 86
94 4 126
246 131 214
151 171 18
131 27 115
245 56 79
6 136 62
201 176 85
13 9 203
123 215 191
58 23 4
180 178 135
113 148 161
8 76 136
104 8 70
253 138 220
174 91 140
145 132 150
70 62 29
156 75 24
11 11 184
238 75 27
71 53 48
73 137 101
211 27 113
146 26 50
60 112 211
23 235 44
64 247 91
166 207 176
3 180 78
85 218 33
190 25 134
4 235 7
156 221 98
72 56 39
55 188 10
2 79 180
3 45 87
3 78 52
20 202 222
224 34 144
29 110 43
14 198 181
217 132 108
188 61 4
240 40 44
154 224 247
7 208 221
200 226 96
204 197 143
118 68 138
38 249 196
230 209 83
164 152 210
93 243 1
217 74 152
21 199 90
155 25 133
203 167 154
240 237 237
231 97 124
233 69 116
234 213 5
195 216 1
181 139 167
28 61 109
228 73 209
233 14 246
227 129 230
99 175 201
26 205 197
69 68 203
82 136 12
165 198 227
199 109 148
99 82 76
149 109 107
10 209 252
47 205 164
178 135 53
59 82 1
163 81 36
60 190 251
58 185 178
40 56 90
119 179 132
246 248 135
154 233 116
109 99 111
42 205 38
234 49 198
71 172 41
94 71 182
103 34 73
79 94 188
4 184 155
56 221 111
48 102 18
71 126 199
56 74 158
251 186 106
186 54 27
1 205 146
118 244 121
190 98 54
1 158 69
68 197 109
79 55 32
242 173 134
216 231 168
127 21 101
46 216 108
47 101 94
126 10 210
172 74 231
74 71 13
243 173 95
203 20 10
219 206 183
177 3 115
83 119 237
120 36 80
138 153 233
